<?xml version="1.0" encoding="utf-8"?>
<!-- Generator: Adobe Illustrator 21.1.0, SVG Export Plug-In . SVG Version: 6.00 Build 0)  -->
<svg version="1.1" id="Layer_1" xmlns="http://www.w3.org/2000/svg" xmlns:xlink="http://www.w3.org/1999/xlink" x="0px" y="0px"
	 viewBox="0 0 308 294" style="enable-background:new 0 0 308 294;" xml:space="preserve">
<g>
	<path d="M38.7,177.1c2.8-0.5,5.4-1,8-1.3c4.1-0.5,8.3-0.9,12.4-1.4c7.2-0.9,14.4-2,21.7-1.9c10.5,0.2,21,0.3,31.5,0.1
		c8.5-0.2,16.6,1.4,24.4,4.5c9.2,3.6,18.2,7.8,27.1,12c9.7,4.7,19.5,9,29.9,12c6.4,1.8,13,2.5,19.6,2.9c8.5,0.5,16.9,0,25.2-1.4
		c4.5-0.8,8.4-3,12.1-5.4c8.1-5.3,14.4-12.3,19.8-20.2c2-2.9,4.1-5.7,6.3-8.4c2.4-2.9,5.2-5.4,8.9-6.4c1.4-0.4,3.1-0.9,4.2,0.5
		c1.2,1.4,1,3.3,0.2,4.7c-1.3,2.4-2.8,4.8-4.5,7c-5.4,7-10.8,14-16.4,20.8c-1.8,2.2-3.9,4-6,5.9c-3.9,3.6-7.7,7.4-11.9,10.7
		c-11.8,9.2-24.9,16.2-39.1,21c-5.2,1.8-10.4,3.6-15.8,5c-6.5,1.8-13.2,1.4-19.8,0.7c-4.8-0.5-9.5-1.9-14.2-3.1
		c-6-1.5-12.2-2.3-18.3-2.3c-9.2-0.1-18.4-0.4-27.5-1.7c-6.2-0.8-12.3-2.3-18.5-3.5c-7.7-1.5-15.3-3.2-22.8-5.6
		c-5.4-1.7-9.6-4.9-13.2-9.1c-3-3.6-5.9-7.2-8.2-11.3c-1-1.8-2.7-3.2-4.2-4.6c-2.4-2.3-4.5-4.7-4.9-8.2c-0.2-1.2-0.5-2.4-0.7-3.5
		c-0.2-1.1-0.5-2.1-1.7-2.4c-0.3-0.1-0.6-0.3-0.7-0.5c-0.4-1.7-1.7-1.3-2.9-1.3c-1,0-2,0.1-3,0c-1.4-0.1-2.1-1.2-2.1-2.5
		c0-1.6,0-3.3-0.3-4.9c-1.1-6.4-2.4-12.8-3.6-19.2c-0.5-2.6-0.4-2.6-3-2.1c-2.4,0.5-4.7,0.9-7.1,1.3c-0.3,0.1-0.7,0.1-1.1,0.1
		c-1.5,0-2.6-0.9-2.7-2.1c-0.1-1.1,0.8-2.3,2.1-2.6c1.8-0.4,3.7-0.5,5.5-0.9c3-0.8,6.1-1.5,9-2.7c3.1-1.3,6-3.1,8.9-4.6
		c1-0.5,2-1.1,3.1-1.6c1.6-0.8,2.8-0.6,3.5,0.6c0.6,1.1,0.2,2.4-1.3,3.3c-2.5,1.4-5.1,2.7-7.7,4.1c-1.6,0.8-3.1,1.6-4.7,2.3
		c-1.1,0.5-0.7,1.3-0.6,2.1c0.6,3.7,1.3,7.4,2,11.1C36.7,167.7,37.7,172.2,38.7,177.1z M136.1,181.6c-9.6-3.7-19.6-5.2-30-4.3
		c0,0.2,0,0.4,0.1,0.6c3.8,9.8,9.4,18.4,17.3,25.4c0.9,0.8,2.2,1.2,3.3,1.6c1.4,0.5,2.6,0,3.2-1.4c0.7-1.5,1.5-3.1,1.9-4.7
		c1-4.2,1.9-8.4,2.8-12.6C135.2,184.6,135.7,183.1,136.1,181.6z M101.8,177.1c-8.1,0-15.7,0-23.3,0c0,0.4-0.1,0.6,0,0.8
		c0.1,0.5,0.2,1.1,0.3,1.6c1.2,4.2,2.4,8.5,5.7,11.6c0.8,0.8,2.1,1.2,3.2,1.3c2.9,0.4,4.6-1.7,6.2-3.6c2.1-2.5,4-5.3,5.9-8
		C100.5,179.8,101,178.6,101.8,177.1z M146.1,185.5c2.7,4.4,5.1,8.4,7.6,12.3c1.3,2.1,2.8,4,4.3,6c0.5,0.6,1.2,1.1,2,1.8
		c0.7-4.4,1.3-8.4,2-12.6C156.8,190.6,151.6,188.1,146.1,185.5z"/>
	<path d="M182.7,43.5c8.6-0.1,17.1,0.1,25.5,2.1c15.9,3.8,28.2,12.4,35.2,27.6c1.9,4.3,2.9,8.7,2.9,13.4c0,7.1-0.4,14.2-2.2,21.1
		c-3.1,11.9-6.5,23.8-12.7,34.5c-3.2,5.5-7.2,10.2-13.7,11.9c-1.2,0.3-2.5,0.5-3.7,0.6c-7.7,0.3-15.3-0.1-22.7-2.3
		c-8.5-2.5-16.1-7-22.8-12.6c-10.2-8.5-19.1-18.2-26.5-29.3c-4.9-7.4-5.6-15.4-4.1-23.9c0.3-1.5,0.8-3,1.5-4.4
		c5.7-11,13.7-19.9,24.4-26.2c2.5-1.5,5.3-2.5,8.3-2.5c1.7,0,2.9,0.7,3,2.1c0.1,1.3-0.8,2.3-2.5,2.4c-6.1,0.4-10.4,4.2-14.7,7.8
		c-5.7,4.8-10.1,10.6-13.8,17c-1.4,2.5-2.1,5.2-2.4,8c-1.1,9.8,3.1,17.6,9.2,24.6c4.9,5.7,9.8,11.4,15.2,16.6
		c8.3,7.9,17.7,14.2,29.1,16.9c6.5,1.5,13.1,1.7,19.6,1.3c4.5-0.3,7.6-3.2,10.2-6.6c3.3-4.2,5.4-9.2,7.4-14.1
		c3.3-8.4,6.2-17,7.8-25.9c1.1-6.2,1.4-12.7,1.4-19c-0.1-7.1-3.6-13-7.8-18.6C228,58.3,219.9,54,211,51c-4.3-1.5-8.7-2.1-13.1-2.4
		c-6.5-0.4-13-0.5-19.4-0.6c-2.2,0-4.4,0.2-6.6,0.4c-1.4,0.1-2.5-0.6-2.7-1.8c-0.2-1.1,0.5-2.2,1.9-2.5c1.5-0.3,3-0.5,4.5-0.5
		C177.8,43.5,180.3,43.5,182.7,43.5z"/>
	<path d="M91.7,72c0.8-2.2,1.3-2.5,3.5-2.6c1.6,0,3.1,0.1,4.7,0c5.7-0.4,10,2,13.6,6.3c3.3,4,5,8.4,5,13.5c0,5.5,0.3,11-0.4,16.4
		c-0.8,6.1-2.4,12.1-6.1,17.3c-1.7,2.3-3.8,3.4-6.6,3.5c-8.5,0.2-16.4-2.3-24.2-5.3c-7.1-2.7-13.8-6.4-19.9-10.8
		c-6.6-4.7-10.4-11.1-10.5-19.4c0-2.8-0.1-5.7,0.3-8.4c1.2-7.3,7.4-13.1,14.8-13.7c6.4-0.5,12.8-0.8,19.1,0.3
		c1.6,0.3,3.1,1.2,4.6,1.8C90.2,71.3,90.9,71.6,91.7,72z M92.7,73.9c-0.8,2.2-2,2.5-4.3,1.5c-1.8-0.8-3.6-2-5.4-2.1
		c-5.6-0.3-11.2-0.4-16.8-0.1c-5.5,0.3-10.1,4.9-10.9,10.3c-0.3,2.1-0.2,4.3-0.2,6.5c-0.1,7.1,3,12.6,8.7,16.7
		c6.6,4.7,13.7,8.5,21.4,11.2c6.4,2.3,12.9,4.2,19.8,4.1c1.6,0,2.7-0.6,3.6-1.9c3-4.4,4.4-9.5,5.1-14.7c0.6-5.1,0.3-10.3,0.5-15.5
		c0.2-5.2-1.9-9.5-5.6-13c-2-2-4.3-3.1-7.1-3C98.6,74,95.7,73.9,92.7,73.9z"/>
	<path d="M186.6,88.1c0-1.3-0.2-2.7,0.1-4c0.4-1.7,1.2-3.4,1.9-5.1c0.2-0.4,0.9-0.7,1.4-0.7c3.7-0.1,7.3-0.3,10.9,0.7
		c5.7,1.7,8.8,5.9,11.2,10.9c2,4.1,1.5,8.4,1.4,12.7c-0.1,3.8-1.4,7.2-3.4,10.5c-3.4,5.5-7.5,7.2-13.7,5.6c-5-1.3-9-4.1-12.1-8.3
		c-1.5-2-2.2-4.3-2.3-6.7c-0.1-4.7-0.2-9.4-0.2-14c0-2.2,1.1-3.4,2.8-2.9C185.3,86.9,185.8,87.5,186.6,88.1z M200.8,114.6
		c-3.1-7-6.1-14-9.2-21c-0.1,0-0.3,0.1-0.4,0.1c0,2.8,0,5.6,0,8.4c0,3.3-1.4,4.2-4.3,2.8C186.4,108.3,194.9,115.5,200.8,114.6z
		 M205.9,88.2c-2.1-4.2-7.4-6.4-14.2-5.4c1.9,4.3,3.8,8.5,5.7,12.6c1.1-0.1,2-0.2,2.9-0.3c0.4-2.7,0.7-3,3.1-3.4
		C204.3,90.4,205.1,89.4,205.9,88.2z M205.1,108.4c-1.7,1.4-1.1,2.8-0.3,4.4c0.7-1,1.3-1.9,2-2.9
		C206.2,109.4,205.6,108.9,205.1,108.4z"/>
	<path d="M74.8,89.2c1.1-2.4,1.9-2.7,4.4-2c0.7,0.2,1.6,0.2,2.4,0.2c2.3,0.1,4.5-0.1,6.8,0.2c4.8,0.6,7.5,3.8,7.8,9.2
		c0.2,3,0,6.1-0.2,9.2c-0.4,4.4-2.4,6.2-6.8,6.6c-1.6,0.1-3.3,0.2-5,0.2c-1.2,0-2.3,0.3-3.4,0.6c-1.2,0.3-2.8-0.4-4.2-0.8
		c-0.8-0.2-1.6-0.8-2.4-1.1c-3.1-1-4.8-3.1-4.9-6.3c-0.1-3.4-0.1-6.8,1.1-10.1c0.4-1,0.5-2.1,0.7-3.2C71.3,89.3,72.1,88.6,74.8,89.2
		z M85.6,103.3c0.1-0.1,0.2-0.2,0.3-0.3c-1.9-3.1-3.9-6.2-5.8-9.3c-0.1,0.1-0.3,0.1-0.4,0.2c0,2.4,0,4.8,0,7.1c0,0.3,0.4,0.9,0.8,1
		C82.1,102.5,83.8,102.9,85.6,103.3z M74.5,97c-1.2,2.4-1.4,8.1,0,9.8C74.5,103.2,74.5,100,74.5,97z M88.2,92.2
		c1.1,3.8,1.1,3.8,3.2,3.8C91.2,93.7,90.3,92.6,88.2,92.2z M82.2,107.1c0,1.4,0.2,1.5,3.6,1.1C84.4,107.7,83.3,107.4,82.2,107.1z"/>
</g>
</svg>
